<svg width="32" height="32" viewBox="0 0 32 32" fill="none" xmlns="http://www.w3.org/2000/svg">
  <!-- 背景圆形 -->
  <circle cx="16" cy="16" r="16" fill="#000000"/>
  
  <!-- 太极图案 -->
  <circle cx="16" cy="16" r="12" fill="white"/>
  <path d="M16 4C16 4 10 10 10 16C10 22 16 28 16 28C16 28 22 22 22 16C22 10 16 4 16 4Z" fill="black"/>
  <circle cx="16" cy="10" r="3" fill="white"/>
  <circle cx="16" cy="22" r="3" fill="black"/>
  
  <!-- 八卦符号 -->
  <path d="M8 8L12 8L12 12L8 12L8 8Z" fill="white"/>
  <path d="M20 8L24 8L24 12L20 12L20 8Z" fill="white"/>
  <path d="M8 20L12 20L12 24L8 24L8 20Z" fill="white"/>
  <path d="M20 20L24 20L24 24L20 24L20 20Z" fill="white"/>
</svg>
